# xmcd
#
# Track frame offsets: 
#        150
#        13663
#        28941
#        41774
#        60642
#        83545
#        96665
#        121113
#        138131
#        151336
#        168964
#        177547
#        206307
#        237125
#        275095
#
# Disc length: 3712 seconds
#
# Revision: 0
# Processed by: cddbd v1.5.2PL0 Copyright (c) Steve Scherf et al.
# Submitted via: ExactAudioCopy v1.3
#
DISCID=c60e7e0f
DTITLE=Bobby Radcliff - Crime School
DYEAR=2018
DGENRE=Blues
TTITLE0=Two Heads
TTITLE1=Mean Ms. Mindy
TTITLE2=Seyler"s Bald
TTITLE3=Tina's Teenage Dance
TTITLE4=Forbidden Love
TTITLE5=Class Reunion
TTITLE6=Pineapple Storm
TTITLE7=Plastic Doll Blues
TTITLE8=Rat's Nest
TTITLE9=Roast Beef Float
TTITLE10=Crime School
TTITLE11=Mouse Man
TTITLE12=Kandy Soup
TTITLE13=Still In Love
TTITLE14=Pork Roll Blues
EXTD=
EXTT0=
EXTT1=
EXTT2=
EXTT3=
EXTT4=
EXTT5=
EXTT6=
EXTT7=
EXTT8=
EXTT9=
EXTT10=
EXTT11=
EXTT12=
EXTT13=
EXTT14=
PLAYORDER=
